<?xml version="1.0" standalone="no"?>
<!DOCTYPE svg PUBLIC "-//W3C//DTD SVG 20010904//EN"
 "http://www.w3.org/TR/2001/REC-SVG-20010904/DTD/svg10.dtd">
<svg version="1.0" xmlns="http://www.w3.org/2000/svg"
 width="1254.000000pt" height="1254.000000pt" viewBox="0 0 1254.000000 1254.000000"
 preserveAspectRatio="xMidYMid meet">
<metadata>
Created by potrace 1.16, written by Peter Selinger 2001-2019
</metadata>
<g transform="translate(0.000000,1254.000000) scale(0.100000,-0.100000)"
fill="#000000" stroke="none">
<path d="M0 6270 l0 -6270 6270 0 6270 0 0 6270 0 6270 -6270 0 -6270 0 0
-6270z m7955 5156 c165 -112 316 -287 390 -448 59 -132 88 -328 66 -464 -31
-203 -94 -306 -336 -554 -238 -242 -355 -399 -441 -588 -84 -185 -105 -391
-58 -582 4 -20 -6 -12 -51 35 -214 228 -287 551 -193 855 48 154 135 292 309
490 235 267 324 427 350 628 23 183 -21 382 -135 606 l-64 124 37 -20 c20 -11
76 -48 126 -82z m-2357 -792 c100 -41 162 -112 188 -215 28 -109 -4 -216 -87
-294 -69 -64 -127 -89 -214 -89 -253 -3 -404 287 -256 491 81 112 244 159 369
107z m3285 -204 c111 -139 176 -323 162 -460 -23 -215 -111 -332 -455 -604
-205 -163 -346 -337 -406 -501 -31 -84 -31 -113 -1 -120 12 -3 99 -16 192 -29
308 -45 369 -56 515 -92 317 -77 481 -159 547 -272 28 -47 28 -47 25 -212 -2
-182 -19 -540 -28 -609 -7 -50 -22 -50 141 -6 137 37 372 46 526 21 388 -64
687 -293 864 -660 123 -256 178 -551 178 -951 0 -425 -56 -799 -169 -1128 -43
-126 -146 -337 -213 -437 -344 -516 -953 -712 -1564 -504 -38 13 -73 21 -78
19 -4 -3 -11 -31 -15 -63 l-6 -57 -207 0 c-179 0 -220 -3 -311 -23 -249 -55
-428 -116 -985 -337 -399 -158 -583 -226 -800 -295 -327 -105 -685 -185 -985
-222 -203 -24 -762 -9 -760 21 1 3 30 44 65 91 135 178 272 501 317 749 28
153 30 448 4 591 -75 419 -285 773 -637 1074 -178 153 -341 258 -606 390 -102
51 -133 71 -133 86 0 10 -7 97 -15 192 -26 301 -46 653 -71 1214 l-6 151 -62
17 c-153 43 -328 126 -465 223 -102 72 -258 236 -320 337 -220 356 -229 791
-26 1201 217 438 633 748 1122 836 95 17 144 20 248 17 172 -7 215 -23 359
-132 167 -127 285 -200 451 -282 308 -151 654 -252 958 -280 42 -4 77 -10 77
-14 0 -13 -56 -58 -98 -80 -120 -60 -375 -90 -600 -72 -259 22 -487 76 -792
188 -239 87 -340 87 -525 -1 -108 -51 -185 -111 -260 -202 -174 -210 -234
-473 -164 -724 30 -110 108 -250 109 -196 0 6 10 23 21 37 17 21 19 22 17 6
-2 -13 6 -24 21 -32 31 -16 62 -1 110 51 85 94 406 201 826 275 280 49 353 58
760 95 197 18 587 35 797 35 l156 0 28 -47 c33 -58 126 -152 132 -135 2 6 -3
43 -12 81 -9 39 -16 75 -16 81 0 9 40 10 148 5 175 -8 736 -50 875 -67 53 -6
99 -9 101 -7 2 2 -3 45 -11 94 -29 182 -2 358 76 513 78 154 157 244 373 424
188 157 270 249 329 372 56 114 72 200 68 355 l-4 130 24 -22 c13 -12 51 -56
84 -97z m-6539 -3976 c-25 -109 -15 -313 21 -424 92 -283 297 -512 652 -726
112 -68 495 -263 643 -329 241 -106 594 -289 720 -373 361 -239 591 -528 677
-849 23 -85 27 -118 27 -253 1 -166 -8 -212 -65 -351 -27 -68 -115 -209 -129
-209 -22 0 -189 54 -267 86 -139 57 -261 133 -350 217 l-53 50 0 99 c0 154
-48 277 -157 406 -55 65 -181 163 -288 224 -77 45 -110 60 -390 183 -720 316
-1151 657 -1298 1026 -121 302 -92 622 88 994 59 121 173 311 181 302 3 -2 -3
-35 -12 -73z m798 -2927 c-22 -654 491 -1182 1364 -1401 266 -67 557 -99 894
-99 340 -1 591 25 935 94 397 79 742 190 1405 451 752 296 948 355 1205 365
157 6 246 -10 352 -62 170 -84 253 -229 253 -439 -1 -407 -323 -912 -782
-1229 -38 -26 -70 -47 -74 -47 -3 0 30 39 73 88 258 287 417 610 430 872 5 92
2 112 -17 165 -59 156 -199 200 -418 130 -77 -25 -214 -95 -582 -299 -734
-408 -1320 -610 -2010 -695 -513 -63 -955 -52 -1404 34 -77 15 -104 22 -281
72 -266 75 -576 229 -790 391 -563 426 -772 1026 -579 1659 14 46 26 83 28 83
1 0 1 -60 -2 -133z"/>
<path d="M5510 10461 c-45 -24 -80 -84 -80 -139 0 -124 127 -200 240 -142 108
55 105 232 -4 284 -45 21 -113 20 -156 -3z"/>
<path d="M6280 8469 c-809 -28 -1629 -174 -1827 -325 -43 -33 -42 -55 5 -81
177 -97 833 -194 1572 -232 1143 -59 2504 44 2875 218 78 36 95 62 68 100 -54
73 -267 134 -680 195 -52 8 -53 3 -22 -102 12 -40 19 -75 16 -78 -11 -11 -157
88 -230 156 l-72 68 -185 21 c-270 31 -536 50 -870 61 -316 11 -337 11 -650
-1z"/>
<path d="M6960 7359 c0 -6 7 -39 16 -73 29 -110 5 -240 -67 -362 -56 -96 -214
-245 -434 -409 -233 -173 -328 -263 -376 -355 -32 -62 -34 -70 -34 -170 0 -98
2 -110 32 -173 39 -83 90 -150 106 -140 7 3 9 3 5 -2 -10 -10 32 -59 101 -118
71 -61 228 -167 247 -167 8 0 -25 49 -75 110 -236 292 -249 491 -47 708 39 41
106 102 150 135 173 132 315 257 375 333 188 233 208 473 56 652 -36 42 -55
52 -55 31z"/>
<path d="M9750 7014 c-105 -22 -222 -86 -301 -164 -40 -39 -69 -76 -69 -87 0
-12 -9 -132 -19 -269 -11 -137 -27 -355 -36 -484 -26 -390 -111 -1329 -131
-1461 -6 -33 -2 -39 46 -82 65 -59 153 -101 252 -121 524 -108 934 366 1044
1209 23 173 24 564 1 720 -41 290 -151 523 -299 635 -140 106 -311 142 -488
104z"/>
<path d="M7310 6585 c-229 -93 -478 -246 -592 -362 -88 -89 -133 -166 -148
-249 -21 -121 16 -223 135 -373 36 -46 73 -98 82 -115 25 -47 20 -131 -10
-198 -27 -61 -22 -72 23 -41 44 29 79 66 73 76 -3 6 -1 7 4 4 15 -9 77 62 109
125 21 41 28 68 28 118 1 77 -21 129 -89 209 -79 93 -100 137 -100 211 1 134
98 249 403 477 105 79 192 146 192 148 0 11 -29 3 -110 -30z"/>
<path d="M7491 5364 c-52 -14 -111 -43 -111 -54 0 -3 32 -4 71 -2 115 7 191
-35 219 -121 35 -111 -76 -293 -259 -422 -38 -28 -70 -53 -71 -57 -1 -26 139
20 272 89 104 53 211 148 251 222 31 55 43 129 33 186 -8 41 -64 108 -110 132
-82 43 -198 53 -295 27z"/>
<path d="M6045 5359 c-135 -20 -260 -73 -313 -134 -84 -95 5 -160 278 -199
327 -47 788 -22 1064 59 92 27 227 91 233 111 2 7 -39 3 -114 -12 -353 -67
-933 -85 -1125 -33 -55 14 -92 49 -83 78 9 29 78 73 161 102 49 18 61 25 47
30 -23 10 -73 9 -148 -2z"/>
<path d="M6045 4893 c-55 -29 -75 -54 -75 -94 0 -71 90 -115 284 -139 141 -18
467 -8 619 19 123 22 309 79 313 96 2 6 -27 29 -64 52 l-67 41 -97 -23 c-145
-35 -273 -49 -468 -49 -259 -1 -380 28 -380 89 0 30 -20 32 -65 8z"/>
<path d="M6167 4529 c-45 -24 -72 -75 -58 -111 13 -34 50 -64 111 -91 103 -45
152 -52 375 -52 197 0 216 2 307 27 119 33 248 87 248 103 0 6 -30 33 -68 58
l-67 47 -97 -25 c-275 -69 -645 -48 -678 39 -11 31 -23 32 -73 5z"/>
<path d="M5750 4317 c-114 -34 -170 -81 -170 -142 0 -80 107 -137 345 -184
287 -56 856 -55 1180 3 450 81 667 201 574 320 -24 31 -49 34 -49 7 0 -58
-127 -134 -292 -176 -204 -51 -440 -75 -748 -75 -422 0 -748 65 -758 152 -4
33 26 62 87 84 73 27 70 34 -14 33 -52 0 -106 -8 -155 -22z"/>
<path d="M7780 4089 c-125 -108 -416 -199 -790 -246 -104 -13 -217 -17 -492
-18 -196 0 -354 -3 -350 -6 15 -14 141 -58 207 -74 388 -89 947 -44 1244 102
125 62 238 189 229 258 -3 22 -4 22 -48 -16z"/>
</g>
</svg>
